PathFileType	4	(X/Y/Z)	C:\Users\Biomechanik\SynologyDrive\AlexP\Athlete_03\Athlete_3_25_03_31\Squat_bar_03\marker_experimental.trc
DataRate	CameraRate	NumFrames	NumMarkers	Units	OrigDataRate	OrigDataStartFrame	OrigNumFrames
200.000000	200.000000	4	55	mm	200.000000	372	497
Frame#	Time	BL			BR			GLAB			RFHD			LFHD			C7			T6			SPINMOL			SPINM2			SPINM3			T12			BELTOL			BELT2			BELT3			SACROL			SACR2			SACR3			LTHOL			LTH2			LTH3			LSHAOL			LSHA2			LSHA3			LHEE			LTOE			LM5			RTHOL			RTH2			RTH3			RSHAOL			RSHA2			RSHA3			RHEE			RTOE			RM5			STRN			XIPH			LACR			LUAOL			LUA2			LUA3			LLAOL			LLA2			LLA3			LWRR			LWRU			RACR			RUAOL			RUA2			RUA3			RLAOL			RLA2			RLA3			RWRR			RWRU			
		X1	Y1	Z1	X2	Y2	Z2	X3	Y3	Z3	X4	Y4	Z4	X5	Y5	Z5	X6	Y6	Z6	X7	Y7	Z7	X8	Y8	Z8	X9	Y9	Z9	X10	Y10	Z10	X11	Y11	Z11	X12	Y12	Z12	X13	Y13	Z13	X14	Y14	Z14	X15	Y15	Z15	X16	Y16	Z16	X17	Y17	Z17	X18	Y18	Z18	X19	Y19	Z19	X20	Y20	Z20	X21	Y21	Z21	X22	Y22	Z22	X23	Y23	Z23	X24	Y24	Z24	X25	Y25	Z25	X26	Y26	Z26	X27	Y27	Z27	X28	Y28	Z28	X29	Y29	Z29	X30	Y30	Z30	X31	Y31	Z31	X32	Y32	Z32	X33	Y33	Z33	X34	Y34	Z34	X35	Y35	Z35	X36	Y36	Z36	X37	Y37	Z37	X38	Y38	Z38	X39	Y39	Z39	X40	Y40	Z40	X41	Y41	Z41	X42	Y42	Z42	X43	Y43	Z43	X44	Y44	Z44	X45	Y45	Z45	X46	Y46	Z46	X47	Y47	Z47	X48	Y48	Z48	X49	Y49	Z49	X50	Y50	Z50	X51	Y51	Z51	X52	Y52	Z52	X53	Y53	Z53	X54	Y54	Z54	X55	Y55	Z55	

373	1.86	241.1273345947266	1152.049560546875	-2235.461181640625	227.1484375	1203.718994140625	-215.1608276367187	513.6016235351562	1366.581176757812	-1184.013061523438	459.2677307128906	1387.012451171875	-1122.126342773438	470.5089416503906	1387.537109375	-1257.890869140625	281.6651916503906	1239.91015625	-1196.656494140625	167.0872344970703	1111.851440429688	-1204.458862304688	148.1070709228516	1087.299926757812	-1224.833984375	138.976318359375	1080.659912109375	-1175.705444335938	115.8334045410156	1030.738525390625	-1212.518188476562	91.59059906005859	977.0892944335939	-1213.386474609375	55.21884918212891	963.7299194335939	-1229.400268554688	52.68255996704102	961.1824951171876	-1179.147216796875	19.50159645080566	912.2743530273439	-1208.243896484375	-28.30539321899414	814.1704101562501	-1233.677001953125	-28.95334625244141	811.7733764648439	-1181.9755859375	-43.60111999511719	753.6274414062501	-1210.196655273438	132.92431640625	571.3432006835939	-1477.213134765625	143.1696319580078	492.6932678222657	-1473.9833984375	171.2657775878906	527.4332885742189	-1497.199951171875	208.2618560791016	316.6248474121095	-1580.01123046875	153.6185760498047	265.0466613769532	-1553.007934570312	199.4780731201172	255.6622772216798	-1572.255004882812	112.7756576538086	70.01095581054696	-1464.609741210938	315.2323913574219	50.33588027954111	-1539.741943359375	238.1969909667969	25.9227409362794	-1620.005249023438	102.1336517333984	565.7824096679689	-940.2401733398438	158.7992858886719	572.7882690429688	-884.2379150390625	145.7335510253906	532.3685302734375	-910.0718383789062	172.1958770751953	331.7554626464844	-833.4846801757812	185.2077789306641	254.4972839355469	-825.06689453125	149.2049407958984	276.3915710449219	-851.7598266601562	91.06566619873047	64.69657897949224	-966.0870971679688	279.7747192382812	47.67655181884771	-868.7720336914062	190.5239410400391	37.38747787475591	-798.0086669921875	406.9219665527344	1085.663452148438	-1199.796752929688	373.1530456542969	941.1719360351564	-1196.139770507812	328.6344604492188	1185.690063476562	-1369.478271484375	206.3099060058594	1080.46337890625	-1459.518676757812	153.3082580566406	1043.049072265625	-1448.308471679688	182.6663208007812	1025.617797851562	-1486.287231445312	149.266357421875	960.3482666015626	-1555.189208984375	220.0260925292969	947.1893310546876	-1589.80126953125	196.2842712402344	990.9885253906251	-1580.978393554688	260.9678039550781	1063.686767578125	-1620.987548828125	277.6851806640625	1089.498657226562	-1547.588012695312	337.1523742675781	1183.950439453125	-1032.639526367188	216.6985321044922	1080.284912109375	-950.8961791992186	185.8780975341797	1028.989501953125	-922.8189697265624	165.1783752441406	1043.479736328125	-968.5513916015624	171.7034454345703	961.6197509765625	-840.0971069335936	180.6407012939453	1040.008544921875	-828.6666870117186	213.0353088378906	1002.10205078125	-817.4721069335936	253.6969299316406	1084.865600585938	-796.4881591796874	282.9082946777344	1113.301147460938	-865.7442626953124	
374	1.865	240.6623840332031	1158.219848632813	-2235.306884765625	226.6551971435547	1209.899291992188	-215.0081176757812	512.8843383789062	1373.13037109375	-1183.869750976562	458.5633850097656	1393.538940429688	-1121.968383789062	469.7701110839844	1394.10546875	-1257.718383789062	281.0074462890625	1246.155151367188	-1196.541137695312	166.8367309570312	1117.4697265625	-1204.376586914062	147.9247283935547	1092.7978515625	-1224.7373046875	138.8358764648438	1086.118408203125	-1175.582763671875	115.9661483764648	1036.069702148438	-1212.41796875	91.939697265625	982.3063354492189	-1213.305297851562	55.64155578613281	968.8651733398439	-1229.357177734375	53.11605072021484	966.2985839843751	-1179.110717773438	20.08426094055176	917.2751464843751	-1208.223876953125	-27.33772277832031	819.3750610351564	-1233.672241210938	-28.04049491882324	816.9934692382814	-1181.96240234375	-42.68921661376953	758.8458862304689	-1210.199584960938	132.6820983886719	574.7710571289064	-1476.235961914062	142.0688934326172	496.0383300781251	-1472.453002929688	170.5328216552734	530.3017578125001	-1495.875	207.0388488769531	317.2910766601564	-1578.712524414062	152.6420745849609	265.3214416503907	-1551.967041015625	198.5420074462891	256.2431640625001	-1571.260620117188	112.7601852416992	70.00448608398446	-1464.59716796875	315.218017578125	50.33740615844736	-1539.748291015625	238.1938018798828	25.95758628845225	-1619.989624023438	101.7538223266602	569.4240722656251	-941.4183959960938	158.4462280273438	575.43896484375	-885.3190307617188	145.0080718994141	535.3516845703125	-911.474609375	170.7946319580078	332.5409240722657	-834.9523315429688	184.1195526123047	255.4030456542969	-826.0850830078125	148.0680236816406	276.9732360839844	-852.9364624023438	91.00180053710938	64.67233276367193	-966.0800170898438	279.7447509765625	47.69977569580083	-868.8153076171875	190.5261688232422	37.39493560791021	-798.0180053710938	406.6857299804688	1092.310180664062	-1199.686767578125	373.4996643066406	947.7388916015626	-1196.031005859375	328.0319519042969	1192.039916992188	-1369.34619140625	205.956787109375	1086.552368164062	-1459.335083007812	153.0589904785156	1048.985107421875	-1448.111083984375	182.433837890625	1031.667724609375	-1486.133056640625	149.2356109619141	966.2792968750001	-1555.062622070312	220.0304870605469	953.3071289062501	-1589.662963867188	196.16845703125	997.0439453125001	-1580.844604492188	260.6632080078125	1069.914306640625	-1620.866333007812	277.3287353515625	1095.759399414062	-1547.441284179688	336.5861511230469	1190.381958007812	-1032.524536132812	216.2969818115234	1086.42822265625	-950.8067016601561	185.6604919433594	1035.011352539062	-922.7706909179686	164.9272003173828	1049.441040039062	-968.4891357421874	171.6526336669922	967.6126708984375	-840.0168457031249	180.4024200439453	1046.023559570312	-828.5838623046874	212.8909149169922	1008.184753417969	-817.3751831054686	253.3531036376953	1091.042602539062	-796.3769531249999	282.4911499023438	1119.542602539062	-865.6296997070311	
375	1.87	240.2020721435547	1164.324462890625	-2235.152099609375	226.1682891845703	1216.023681640625	-214.8547210693359	512.1661987304688	1379.614379882812	-1183.721923828125	457.8572082519531	1400.000610351562	-1121.807250976562	469.0367126464844	1400.611694335938	-1257.54443359375	280.3497619628906	1252.340698242188	-1196.428955078125	166.5958862304688	1123.02392578125	-1204.29638671875	147.7506561279297	1098.23193359375	-1224.641845703125	138.7022094726562	1091.514892578125	-1175.461669921875	116.1091537475586	1041.339233398438	-1212.319580078125	92.29610443115234	987.4603271484376	-1213.22900390625	56.06764221191406	973.9425659179689	-1229.320190429688	53.55980682373047	971.3543701171876	-1179.0771484375	20.68035125732422	922.2120361328126	-1208.2080078125	-26.36052894592285	824.5235595703126	-1233.683471679688	-27.11243629455566	822.1541137695314	-1181.967407226562	-41.76941299438477	764.0083618164064	-1210.219604492188	132.439453125	578.1648559570314	-1475.251342773438	140.9557037353516	499.3649291992189	-1470.921752929688	169.7883453369141	533.1478271484376	-1494.541015625	205.7946014404297	317.9547729492189	-1577.395141601562	151.6482086181641	265.5919799804689	-1550.91259765625	197.5873413085938	256.8235778808595	-1570.252075195312	112.7442474365234	69.99851989746102	-1464.586303710938	315.2052917480469	50.34218597412119	-1539.754516601562	238.1912841796875	25.99125671386729	-1619.97412109375	101.3563613891602	573.0487060546876	-942.6163940429688	158.0717620849609	578.0720825195312	-886.4332275390625	144.2558135986328	538.3224487304688	-912.900390625	169.3617095947266	333.3217468261719	-836.4373779296875	183.0074310302734	256.3123779296876	-827.123046875	146.9050598144531	277.5495300292969	-854.1238403320312	90.93466186523438	64.65122222900396	-966.0717163085938	279.7137451171875	47.72401046752935	-868.8599243164062	190.5262298583984	37.40090942382817	-798.02587890625	406.4491577148438	1098.896728515625	-1199.578002929688	373.8490600585938	954.2466430664064	-1195.92138671875	327.4309387207031	1198.326293945312	-1369.215698242188	205.6071929931641	1092.578002929688	-1459.156372070312	152.8143920898438	1054.861694335938	-1447.919677734375	182.2048950195312	1037.654663085938	-1485.9833984375	149.2090148925781	972.1469726562501	-1554.939331054688	220.0354156494141	959.3637084960939	-1589.526977539062	196.0559997558594	1003.037963867188	-1580.713256835938	260.364501953125	1076.079345703125	-1620.744262695312	276.9754638671875	1101.95751953125	-1547.295043945312	336.0183410644531	1196.746826171875	-1032.419921875	215.9026641845703	1092.505493164062	-950.7149047851561	185.4484710693359	1040.968139648438	-922.7158203124999	164.6819000244141	1055.33837890625	-968.4224243164061	171.6123504638672	973.543212890625	-839.9312133789061	180.1728820800781	1051.978149414062	-828.4973754882811	212.7552642822266	1014.208068847656	-817.2751464843749	253.0138702392578	1097.159423828125	-796.2645874023436	282.0794982910156	1125.722290039062	-865.5150146484374	
376	1.875	239.7465057373047	1170.360229492188	-2234.997314453125	225.6871948242188	1222.087280273438	-214.7012634277343	511.4480590820312	1386.02880859375	-1183.570434570312	457.1498413085938	1406.393432617188	-1121.643920898438	468.3092041015625	1407.051025390625	-1257.369873046875	279.6925354003906	1258.462768554688	-1196.320190429688	166.3646087646484	1128.511108398438	-1204.218139648438	147.58544921875	1103.598022460938	-1224.548095703125	138.5746917724609	1096.845947265625	-1175.343994140625	116.2625885009766	1046.543823242188	-1212.222778320312	92.65885162353516	992.5479736328126	-1213.156860351562	56.49763488769531	978.9584350585939	-1229.287963867188	54.0133056640625	976.3464355468751	-1179.0458984375	21.29053497314453	927.0821533203126	-1208.194458007812	-25.37423706054688	829.6125488281251	-1233.709228515625	-26.16767501831055	827.2520141601564	-1181.989501953125	-40.8413200378418	769.1118774414064	-1210.2548828125	132.1949768066406	581.5206298828126	-1474.257690429688	139.82861328125	502.671356201172	-1469.390991210938	169.0315551757812	535.9701538085939	-1493.198364257812	204.5278625488281	318.6156616210939	-1576.05908203125	150.6356201171875	265.8583374023439	-1549.844360351562	196.6125640869141	257.4033508300782	-1569.2294921875	112.7273788452148	69.9928512573243	-1464.577514648438	315.1943054199219	50.3512725830079	-1539.760498046875	238.1895294189453	26.02353477478037	-1619.958984375	100.942497253418	576.6527099609376	-943.8313598632812	157.6779937744141	580.6841430664062	-887.5791625976562	143.4780426025391	541.2774658203125	-914.3474731445312	167.8997344970703	334.0959167480469	-837.93798828125	181.8746795654297	257.2231445312501	-828.1805419921875	145.7186126708984	278.1185607910157	-855.3204345703125	90.86473846435547	64.63283538818365	-966.062255859375	279.6821899414062	47.74930953979497	-868.9050903320312	190.5241546630859	37.40560531616216	-798.0322875976562	406.2117614746094	1105.418334960938	-1199.470581054688	374.1994934082031	960.6904907226564	-1195.81103515625	326.8315734863281	1204.544677734375	-1369.087158203125	205.259033203125	1098.536743164062	-1458.983764648438	152.57421875	1060.674194335938	-1447.735107421875	181.9790954589844	1043.574340820312	-1485.839233398438	149.1873626708984	977.9464721679689	-1554.820190429688	220.0416259765625	965.3548583984376	-1589.394165039062	195.9471893310547	1008.966491699219	-1580.584838867188	260.0721435546875	1082.178100585938	-1620.62158203125	276.6253967285156	1108.089111328125	-1547.149780273438	335.4485473632812	1203.041015625	-1032.326293945312	215.5169982910156	1098.5126953125	-950.6209106445311	185.2425231933594	1046.8564453125	-922.6541137695311	164.442626953125	1061.168579101562	-968.3511352539061	171.5827331542969	979.4077758789062	-839.8405151367186	179.9518280029297	1057.868530273438	-828.4077148437499	212.6284942626953	1020.168273925781	-817.1723632812499	252.6798858642578	1103.212646484375	-796.1515502929686	281.6734008789062	1131.83740234375	-865.4006347656249	
